# xmcd CD database file
#
# Track frame offsets:
#	150
#	47444
#	82278
#	112444
#	145246
#	176302
#	211909
#
# Disc length: 3345 seconds
#
# Revision: 0
# Processed by: cddbd v1.5.2PL0 Copyright (c) Steve Scherf et al.
# Submitted via: CDex 1.91
#
DISCID=630d0f07
DTITLE=Antonio De Padua - All Black
DYEAR=2017
DGENRE=Jazz
TTITLE0=All Black
TTITLE1=Lorena 78
TTITLE2=Joao Danado
TTITLE3=Maqsum
TTITLE4=Jack o Son e na 4a acunha
TTITLE5=Quentin
TTITLE6=Miscelanea
EXTD=YEAR: 2017
EXTT0=
EXTT1=
EXTT2=
EXTT3=
EXTT4=
EXTT5=
EXTT6=
PLAYORDER=
